<?xml version="1.0" encoding="UTF-8"?>
<!DOCTYPE svg PUBLIC "-//W3C//DTD SVG 1.1//EN" "http://www.w3.org/Graphics/SVG/1.1/DTD/svg11.dtd">
<!-- Creator: CorelDRAW -->
<svg xmlns="http://www.w3.org/2000/svg" xml:space="preserve" width="2048px" height="2048px" style="shape-rendering:geometricPrecision; text-rendering:geometricPrecision; image-rendering:optimizeQuality; fill-rule:evenodd; clip-rule:evenodd"
viewBox="0 0 2048 2048"
 xmlns:xlink="http://www.w3.org/1999/xlink">
 <defs>
  <style type="text/css">
   <![CDATA[
    .fil7 {fill:none}
    .fil3 {fill:#454545}
    .fil0 {fill:#6A6A6A}
    .fil1 {fill:#8C8D8D}
    .fil5 {fill:#A1A1A1}
    .fil4 {fill:#BCBCBC}
    .fil2 {fill:#454545;fill-rule:nonzero}
    .fil6 {fill:#6A6A6A;fill-rule:nonzero}
   ]]>
  </style>
 </defs>
 <g id="Layer_x0020_1">
  <metadata id="CorelCorpID_0Corel-Layer"/>
  <g id="_291449176">
   <g>
    <rect id="_291450376" class="fil0" x="474.183" y="1636.42" width="174.546" height="155.578"/>
    <rect id="_291450904" class="fil0" x="1399.27" y="1636.42" width="174.546" height="155.578"/>
   </g>
   <path id="_291450688" class="fil1" d="M384.631 255.999l1278.74 0c32.4036,0 58.8142,29.4697 58.8142,65.6268l0 1257.52c0,36.1571 -26.4107,65.6268 -58.8142,65.6268l-1278.74 0c-32.4047,0 -58.8142,-29.4685 -58.8142,-65.6268l0 -1257.52c0,-35.9776 26.5725,-65.6268 58.8142,-65.6268z"/>
   <path id="_291450856" class="fil2" d="M577.819 779.636c0,-15.0626 -12.2114,-27.2729 -27.274,-27.2729 -15.0614,0 -27.2729,12.2102 -27.2729,27.2729l0 384c0,15.0626 12.2114,27.2729 27.2729,27.2729 15.0626,0 27.274,-12.2102 27.274,-27.2729l0 -384z"/>
   <path id="_291449896" class="fil3" d="M1345.59 679.934c74.6859,74.6859 112.029,172.572 112.029,270.454 0,97.8804 -37.3429,195.769 -112.029,270.453 -74.6847,74.6859 -172.573,112.029 -270.454,112.029 -97.8804,0 -195.768,-37.3429 -270.453,-112.029 -74.6847,-74.6835 -112.029,-172.572 -112.029,-270.453 0,-97.8816 37.3441,-195.768 112.029,-270.454 74.6847,-74.6859 172.572,-112.029 270.453,-112.029 97.8804,0 195.769,37.3429 270.454,112.029z"/>
   <path id="_291450064" class="fil4" d="M1113.78 911.749l-0.00354331 -0.0011811 -0.0011811 -0.0011811c-10.6642,-10.6642 -24.6508,-15.9992 -38.6374,-15.9992 -13.9866,0 -27.9721,5.33504 -38.6386,15.9992l-0.0011811 0.0011811 -0.0011811 0.0011811c-10.6654,10.6665 -15.9992,24.6508 -15.9992,38.6386 0,13.9866 5.33386,27.9721 15.9992,38.6374l0.0011811 0.00236221 0.0011811 0.0011811c10.6665,10.6642 24.652,16.0004 38.6386,16.0004 13.9866,0 27.9732,-5.33504 38.6374,-16.0004l0.0011811 -0.0011811 0.00354331 -0.00236221c10.663,-10.6654 15.998,-24.6508 15.998,-38.6374 0,-13.9878 -5.33386,-27.9721 -15.998,-38.6386z"/>
   <path id="_291450136" class="fil5" d="M1186.49 1012.55l130.82 130.82c44.9693,-56.2914 67.4575,-124.635 67.4575,-192.979 0,-67.8225 -22.1445,-135.644 -66.43,-191.686l-131.023 131.023c10.213,18.8669 15.3225,39.7654 15.3225,60.6626 0,21.4512 -5.38229,42.9024 -16.1469,62.1591z"/>
   <path id="_291449560" class="fil5" d="M1265.53 1194.6l-131.239 -131.237c-18.4677,9.6756 -38.8063,14.5169 -59.1461,14.5169 -20.8961,0 -41.7957,-5.10945 -60.6626,-15.3236l-131.021 131.022c56.041,44.2855 123.86,66.4312 191.684,66.4312 67.3004,0 134.595,-21.8055 190.386,-65.4095z"/>
   <path id="_291449080" class="fil5" d="M882.162 708.219l130.819 130.819c19.2555,-10.7634 40.7091,-16.1457 62.1591,-16.1457 20.8984,0 41.7957,5.10709 60.6626,15.3225l131.025 -131.023c-56.0422,-44.2843 -123.862,-66.43 -191.687,-66.43 -68.3457,0 -136.688,22.4882 -192.978,67.4575z"/>
   <path id="_291449344" class="fil5" d="M962.161 891.238l-131.237 -131.235c-43.6028,55.7894 -65.4095,123.085 -65.4095,190.384 0,67.8237 22.1469,135.643 66.4323,191.685l131.021 -131.022c-10.2154,-18.8669 -15.3225,-39.7654 -15.3225,-60.6626 0,-20.3398 4.8378,-40.6819 14.5158,-59.1497z"/>
   <path id="_291448792" class="fil6" d="M471.815 335.686l1104.37 0c18.4028,0 35.0362,8.29134 47.0244,21.6685 11.5866,12.9295 18.7689,30.6343 18.7689,50.0103l0 1086.05c0,19.376 -7.18229,37.0807 -18.7689,50.0103 -11.9882,13.3772 -28.6217,21.6685 -47.0244,21.6685l-1104.37 0c-18.4028,0 -35.0374,-8.29134 -47.0244,-21.6673 -11.5866,-12.9295 -18.7689,-30.6343 -18.7689,-50.0115l0 -1086.05c0,-19.2992 7.22127,-37.0075 18.8221,-49.9524 11.9988,-13.3902 28.6382,-21.7264 46.9713,-21.7264zm1104.37 30l-1104.37 0c-9.51024,0 -18.2717,4.46929 -24.7051,11.6492 -6.83386,7.6252 -11.0882,18.2599 -11.0882,30.0296l0 1086.05c0,11.8488 4.22363,22.4882 11.035,30.0886 6.41221,7.15512 15.1784,11.5902 24.7583,11.5902l1104.37 0c9.57993,0 18.3461,-4.43504 24.7583,-11.5913 6.81142,-7.6004 11.035,-18.2398 11.035,-30.0874l0 -1086.05c0,-11.8476 -4.22363,-22.487 -11.035,-30.0874 -6.41221,-7.1563 -15.1784,-11.5913 -24.7583,-11.5913z"/>
  </g>
 </g>
 <rect class="fil7" width="2048" height="2048"/>
</svg>
